<svg width="1440" height="1024" viewBox="0 0 1440 1024" fill="none" xmlns="http://www.w3.org/2000/svg">
<g clip-path="url(#clip0_1310_480)">
<rect width="1440" height="1024" fill="white"/>
<g filter="url(#filter0_f_1310_480)">
<circle cx="1032.01" cy="611.804" r="560.804" fill="#F33EE7"/>
</g>
<g filter="url(#filter1_f_1310_480)">
<ellipse cx="875" cy="155" rx="366" ry="377" fill="#FFD8FC"/>
</g>
<g filter="url(#filter2_f_1310_480)">
<circle cx="1353" cy="788.784" r="273" fill="#FF3333"/>
</g>
<g filter="url(#filter3_f_1310_480)">
<path d="M379.5 698.5C379.5 932.945 -290.04 1064 -91.5 1064C13.3341 1064 299.012 1118.2 475 1064C632.308 1015.55 687 865.4 687 754.748C687 520.303 436.04 306.748 237.5 306.748C38.9598 306.748 379.5 464.055 379.5 698.5Z" fill="#26C2FA"/>
</g>
</g>
<defs>
<filter id="filter0_f_1310_480" x="51.208" y="-369" width="1961.61" height="1961.61" filterUnits="userSpaceOnUse" color-interpolation-filters="sRGB">
<feFlood flood-opacity="0" result="BackgroundImageFix"/>
<feBlend mode="normal" in="SourceGraphic" in2="BackgroundImageFix" result="shape"/>
<feGaussianBlur stdDeviation="210" result="effect1_foregroundBlur_1310_480"/>
</filter>
<filter id="filter1_f_1310_480" x="-111" y="-842" width="1972" height="1994" filterUnits="userSpaceOnUse" color-interpolation-filters="sRGB">
<feFlood flood-opacity="0" result="BackgroundImageFix"/>
<feBlend mode="normal" in="SourceGraphic" in2="BackgroundImageFix" result="shape"/>
<feGaussianBlur stdDeviation="310" result="effect1_foregroundBlur_1310_480"/>
</filter>
<filter id="filter2_f_1310_480" x="660" y="95.7837" width="1386" height="1386" filterUnits="userSpaceOnUse" color-interpolation-filters="sRGB">
<feFlood flood-opacity="0" result="BackgroundImageFix"/>
<feBlend mode="normal" in="SourceGraphic" in2="BackgroundImageFix" result="shape"/>
<feGaussianBlur stdDeviation="210" result="effect1_foregroundBlur_1310_480"/>
</filter>
<filter id="filter3_f_1310_480" x="-548.299" y="-113.252" width="1655.3" height="1621.34" filterUnits="userSpaceOnUse" color-interpolation-filters="sRGB">
<feFlood flood-opacity="0" result="BackgroundImageFix"/>
<feBlend mode="normal" in="SourceGraphic" in2="BackgroundImageFix" result="shape"/>
<feGaussianBlur stdDeviation="210" result="effect1_foregroundBlur_1310_480"/>
</filter>
<clipPath id="clip0_1310_480">
<rect width="1440" height="1024" fill="white"/>
</clipPath>
</defs>
</svg>
