<svg width="64" height="64" viewBox="0 0 64 64" fill="none" xmlns="http://www.w3.org/2000/svg">
<path d="M41.7082 24.3479L39.6519 22.2916L31.4998 30.4437L23.3478 22.2916L21.2915 24.3479L29.4436 32.5L21.2915 40.652L23.3478 42.7083L31.4998 34.5562L39.6519 42.7083L41.7082 40.652L33.5561 32.5L41.7082 24.3479Z" fill="#323232"/>
<path d="M32 63C14.8792 63 1 49.1208 1 32H-1C-1 50.2254 13.7746 65 32 65V63ZM63 32C63 49.1208 49.1208 63 32 63V65C50.2254 65 65 50.2254 65 32H63ZM32 1C49.1208 1 63 14.8792 63 32H65C65 13.7746 50.2254 -1 32 -1V1ZM32 -1C13.7746 -1 -1 13.7746 -1 32H1C1 14.8792 14.8792 1 32 1V-1Z" fill="#1B1B1B"/>
</svg>
