<svg width="227" height="183" viewBox="0 0 227 183" fill="none" xmlns="http://www.w3.org/2000/svg">
<g clip-path="url(#clip0_206_418)">
<path d="M16.908 159.797L8.28961 157.243C7.0224 152.247 6.87548 146.985 7.86161 141.912C11.6216 150.143 21.7197 151.695 27.7018 158.114C29.5537 160.132 30.9719 162.585 31.8512 165.292C32.7306 167.999 33.0485 170.891 32.7815 173.753L34.8461 180.377C30.6554 180.193 26.5505 179.006 22.8142 176.896C19.0779 174.786 15.7989 171.805 13.2033 168.157C11.7655 166.094 10.5679 163.839 9.63884 161.446C13.2451 160.86 16.908 159.797 16.908 159.797Z" fill="white"/>
<path d="M123.982 182.238H39.51C37.2462 182.235 35.0758 181.238 33.4751 179.465C31.8743 177.692 30.9739 175.289 30.9713 172.782V48.9167C30.9739 46.4096 31.8743 44.0061 33.4751 42.2334C35.0758 40.4606 37.2462 39.4635 39.51 39.4606H123.982C126.245 39.4635 128.416 40.4606 130.017 42.2334C131.617 44.0061 132.518 46.4096 132.52 48.9167V172.782C132.518 175.289 131.617 177.692 130.017 179.465C128.416 181.238 126.245 182.235 123.982 182.238Z" fill="#E6E6E6"/>
<path d="M91.7413 174.571H45.4477C43.3864 174.568 41.4102 173.66 39.9527 172.046C38.4951 170.432 37.6753 168.243 37.6729 165.961V55.7376C37.6753 53.4549 38.4951 51.2664 39.9527 49.6523C41.4102 48.0382 43.3864 47.1303 45.4477 47.1277H118.044C120.105 47.1303 122.081 48.0382 123.539 49.6523C124.996 51.2664 125.816 53.4549 125.819 55.7376V136.833C125.808 146.838 122.215 156.43 115.826 163.505C109.438 170.58 100.776 174.559 91.7413 174.571Z" fill="white"/>
<path d="M110.802 68.2886H52.6897C52.4408 68.2889 52.1943 68.235 51.9642 68.1298C51.7342 68.0247 51.5251 67.8704 51.3489 67.6757C51.1727 67.4811 51.0328 67.2499 50.9373 66.9954C50.8417 66.7409 50.7924 66.468 50.7921 66.1924C50.7918 65.9168 50.8405 65.6438 50.9355 65.389C51.0304 65.1342 51.1698 64.9027 51.3455 64.7075C51.5213 64.5124 51.73 64.3575 51.9599 64.2517C52.1897 64.1459 52.4361 64.0913 52.685 64.0909H110.802C111.305 64.0902 111.787 64.3107 112.143 64.7038C112.499 65.0969 112.699 65.6305 112.7 66.1871C112.7 66.7438 112.501 67.2779 112.146 67.672C111.791 68.0661 111.309 68.2879 110.807 68.2886H110.802Z" fill="#143D79"/>
<path d="M110.802 76.5819H52.6897C52.187 76.5819 51.7049 76.3608 51.3495 75.9672C50.9941 75.5736 50.7944 75.0397 50.7944 74.483C50.7944 73.9264 50.9941 73.3925 51.3495 72.9989C51.7049 72.6052 52.187 72.3841 52.6897 72.3841H110.802C111.305 72.3841 111.787 72.6052 112.142 72.9989C112.498 73.3925 112.697 73.9264 112.697 74.483C112.697 75.0397 112.498 75.5736 112.142 75.9672C111.787 76.3608 111.305 76.5819 110.802 76.5819Z" fill="#143D79"/>
<path d="M77.88 84.8755H52.6897C52.187 84.8755 51.7049 84.6543 51.3495 84.2607C50.994 83.8671 50.7944 83.3332 50.7944 82.7765C50.7944 82.2199 50.994 81.686 51.3495 81.2924C51.7049 80.8988 52.187 80.6776 52.6897 80.6776H77.88C78.3826 80.6776 78.8647 80.8988 79.2202 81.2924C79.5756 81.686 79.7753 82.2199 79.7753 82.7765C79.7753 83.3332 79.5756 83.8671 79.2202 84.2607C78.8647 84.6543 78.3826 84.8755 77.88 84.8755Z" fill="#143D79"/>
<path d="M110.802 102.245H52.6897C52.187 102.246 51.7047 102.025 51.3489 101.632C50.993 101.239 50.7927 100.706 50.7921 100.149C50.7915 99.5923 50.9905 99.0582 51.3455 98.6641C51.7005 98.27 52.1823 98.0482 52.685 98.0475H110.802C111.305 98.0468 111.787 98.2672 112.143 98.6604C112.499 99.0535 112.699 99.587 112.7 100.144C112.7 100.7 112.501 101.234 112.146 101.629C111.791 102.023 111.309 102.244 110.807 102.245H110.802Z" fill="#FDA402"/>
<path d="M110.802 110.539H52.6897C52.187 110.539 51.7049 110.318 51.3495 109.924C50.9941 109.53 50.7944 108.996 50.7944 108.44C50.7944 107.883 50.9941 107.349 51.3495 106.956C51.7049 106.562 52.187 106.341 52.6897 106.341H110.802C111.305 106.341 111.787 106.562 112.142 106.956C112.498 107.349 112.697 107.883 112.697 108.44C112.697 108.996 112.498 109.53 112.142 109.924C111.787 110.318 111.305 110.539 110.802 110.539Z" fill="#FDA402"/>
<path d="M77.88 118.832H52.6897C52.187 118.832 51.7049 118.611 51.3495 118.217C50.994 117.824 50.7944 117.29 50.7944 116.733C50.7944 116.177 50.994 115.643 51.3495 115.249C51.7049 114.855 52.187 114.634 52.6897 114.634H77.88C78.3826 114.634 78.8647 114.855 79.2202 115.249C79.5756 115.643 79.7753 116.177 79.7753 116.733C79.7753 117.29 79.5756 117.824 79.2202 118.217C78.8647 118.611 78.3826 118.832 77.88 118.832Z" fill="#FDA402"/>
<path d="M110.802 136.202H52.6897C52.187 136.202 51.7047 135.982 51.3489 135.589C50.993 135.196 50.7927 134.662 50.7921 134.106C50.7915 133.549 50.9905 133.015 51.3455 132.621C51.7005 132.227 52.1823 132.005 52.685 132.004H110.802C111.305 132.003 111.787 132.224 112.143 132.617C112.499 133.01 112.699 133.544 112.7 134.1C112.7 134.657 112.501 135.191 112.146 135.585C111.791 135.979 111.309 136.201 110.807 136.202H110.802Z" fill="#FDA402"/>
<path d="M110.802 144.495H52.6897C52.187 144.495 51.7049 144.274 51.3495 143.88C50.9941 143.487 50.7944 142.953 50.7944 142.396C50.7944 141.84 50.9941 141.306 51.3495 140.912C51.7049 140.518 52.187 140.297 52.6897 140.297H110.802C111.305 140.297 111.787 140.518 112.142 140.912C112.498 141.306 112.697 141.84 112.697 142.396C112.697 142.953 112.498 143.487 112.142 143.88C111.787 144.274 111.305 144.495 110.802 144.495Z" fill="#FDA402"/>
<path d="M77.88 152.789H52.6897C52.1876 152.788 51.7065 152.566 51.3518 152.173C50.9972 151.779 50.798 151.246 50.798 150.69C50.798 150.134 50.9972 149.601 51.3518 149.207C51.7065 148.814 52.1876 148.592 52.6897 148.591H77.88C78.382 148.592 78.8631 148.814 79.2178 149.207C79.5725 149.601 79.7717 150.134 79.7717 150.69C79.7717 151.246 79.5725 151.779 79.2178 152.173C78.8631 152.566 78.382 152.788 77.88 152.789Z" fill="#FDA402"/>
<path d="M128.349 69.1553C141.957 69.1553 152.988 56.9391 152.988 41.8697C152.988 26.8002 141.957 14.584 128.349 14.584C114.741 14.584 103.71 26.8002 103.71 41.8697C103.71 56.9391 114.741 69.1553 128.349 69.1553Z" fill="#143D79"/>
<path opacity="0.16" d="M128.349 65.3753C122.116 65.3744 116.114 62.7566 111.554 58.0496C106.995 53.3426 104.216 46.8965 103.778 40.0104C103.738 40.6456 103.71 41.2846 103.71 41.9311C103.713 49.1659 106.31 56.1035 110.93 61.2183C115.551 66.3331 121.816 69.2064 128.349 69.2064C134.882 69.2064 141.148 66.3331 145.768 61.2183C150.389 56.1035 152.986 49.1659 152.988 41.9311C152.988 41.2846 152.96 40.6456 152.92 40.0104C152.482 46.8965 149.704 53.3426 145.144 58.0496C140.584 62.7566 134.583 65.3744 128.349 65.3753Z" fill="#231F20"/>
<path d="M128.349 55.2035C127.531 55.2025 126.747 54.8421 126.168 54.2015C125.59 53.5609 125.264 52.6923 125.263 51.7864V32.0144C125.263 31.5653 125.343 31.1206 125.497 30.7056C125.652 30.2906 125.88 29.9135 126.166 29.5958C126.453 29.2781 126.793 29.0261 127.168 28.8541C127.542 28.6822 127.944 28.5937 128.349 28.5937C128.755 28.5937 129.156 28.6822 129.531 28.8541C129.905 29.0261 130.246 29.2781 130.532 29.5958C130.819 29.9135 131.046 30.2906 131.201 30.7056C131.356 31.1206 131.435 31.5653 131.435 32.0144V51.7864C131.434 52.6923 131.108 53.5609 130.53 54.2015C129.952 54.8421 129.167 55.2025 128.349 55.2035Z" fill="white"/>
<path d="M116.336 41.9004C116.337 40.9945 116.663 40.1259 117.241 39.4853C117.82 38.8447 118.604 38.4843 119.422 38.4833H137.276C137.682 38.4828 138.083 38.5708 138.458 38.7423C138.833 38.9138 139.173 39.1655 139.46 39.4828C139.747 39.8002 139.975 40.177 140.13 40.5918C140.285 41.0067 140.365 41.4513 140.365 41.9003C140.365 42.3494 140.285 42.794 140.13 43.2088C139.975 43.6237 139.747 44.0005 139.46 44.3179C139.173 44.6352 138.833 44.8868 138.458 45.0583C138.083 45.2299 137.682 45.3179 137.276 45.3174H119.422C118.604 45.3164 117.82 44.9561 117.241 44.3155C116.663 43.6749 116.337 42.8064 116.336 41.9004Z" fill="white"/>
<path d="M0.306487 182.238H160.693C160.775 182.238 160.853 182.179 160.91 182.076C160.968 181.972 161 181.831 161 181.684C161 181.537 160.968 181.396 160.91 181.292C160.853 181.188 160.775 181.13 160.693 181.13H0.306487C0.2252 181.13 0.147247 181.188 0.0897687 181.292C0.0322902 181.396 0 181.537 0 181.684C0 181.831 0.0322902 181.972 0.0897687 182.076C0.147247 182.179 0.2252 182.238 0.306487 182.238Z" fill="white"/>
</g>
<defs>
<clipPath id="clip0_206_418">
<rect width="227" height="181.677" fill="white" transform="translate(0 0.561035)"/>
</clipPath>
</defs>
</svg>
