<svg width="35" height="35" viewBox="0 0 35 35" fill="none" xmlns="http://www.w3.org/2000/svg">
<path d="M5.83329 8.75008H2.91663V29.1668C2.91663 30.7709 4.22913 32.0834 5.83329 32.0834H26.25V29.1668H5.83329V8.75008ZM29.1666 2.91675H11.6666C10.0625 2.91675 8.74996 4.22925 8.74996 5.83342V23.3334C8.74996 24.9376 10.0625 26.2501 11.6666 26.2501H29.1666C30.7708 26.2501 32.0833 24.9376 32.0833 23.3334V5.83342C32.0833 4.22925 30.7708 2.91675 29.1666 2.91675ZM27.7083 16.0417H13.125V13.1251H27.7083V16.0417ZM21.875 21.8751H13.125V18.9584H21.875V21.8751ZM27.7083 10.2084H13.125V7.29175H27.7083V10.2084Z" fill="#4F4F4F"/>
</svg>
