<svg width="185" height="168" viewBox="0 0 185 168" fill="none" xmlns="http://www.w3.org/2000/svg">
<g clip-path="url(#clip0_206_343)">
<path d="M180.501 97.3972C180.501 97.5243 180.501 97.6513 180.501 97.7763C180.481 99.9677 180.364 102.154 180.15 104.334C180.151 104.347 180.151 104.36 180.15 104.373C180.133 104.555 180.114 104.734 180.095 104.915C180.063 105.221 180.029 105.525 179.991 105.831C179.553 109.559 178.827 113.238 177.821 116.828C176.474 121.679 174.57 126.32 172.156 130.634C171.413 131.954 170.622 133.231 169.782 134.465C169.334 135.119 168.877 135.759 168.405 136.388C168.073 136.828 167.736 137.261 167.392 137.688L167.177 137.95C165.368 140.148 163.418 142.199 161.343 144.087C157.955 147.195 154.307 149.898 150.601 152.406C150.39 152.55 150.177 152.692 149.965 152.823C149.95 152.835 149.934 152.845 149.918 152.854C144.881 156.225 139.658 159.266 134.276 161.701C128.385 164.374 122.302 166.317 116.06 167.167C107.361 168.35 98.556 167.388 89.9091 165.734C82.7177 164.366 75.6134 162.488 68.6402 160.11L67.4921 159.712C66.8973 159.502 66.3031 159.288 65.7096 159.07C62.1246 157.758 58.5798 156.3 55.0751 154.696C46.273 150.684 37.8642 145.687 29.9797 139.783C28.9759 139.036 27.9865 138.272 27.0115 137.492C25.6488 136.406 24.3024 135.288 22.9723 134.138L22.1516 133.434C18.6708 130.418 15.4095 127.103 12.398 123.521C8.34754 118.642 4.88616 113.139 2.61058 106.856C2.2517 105.869 1.92294 104.863 1.6243 103.838L1.59607 103.736C1.44549 103.215 1.30621 102.694 1.17822 102.153C0.989998 101.378 0.824992 100.593 0.683199 99.799C0.653084 99.6469 0.626733 99.4948 0.602264 99.3407C0.152396 96.6675 -0.0462944 93.9499 0.00936926 91.2314C0.0564442 88.8494 0.308545 86.4779 0.762251 84.149C1.22663 81.7347 1.94225 79.3881 2.89479 77.1562C3.7556 75.1492 4.85239 73.277 6.15665 71.5882C7.07314 70.4074 8.10385 69.3415 9.23029 68.4094C11.2725 66.7263 13.5368 65.5535 15.8839 64.6266C16.9869 64.1891 18.1049 63.8059 19.2286 63.4497C20.0247 63.1955 20.8247 62.9539 21.6208 62.7164L23.9698 62.0144C25.4756 61.5603 26.9814 61.0937 28.4645 60.5896C32.5075 59.2231 36.4696 57.5692 40.1342 55.1029C40.7139 54.7133 41.3049 54.2863 41.896 53.828C42.6488 53.2489 43.3904 52.6199 44.1245 51.9408C44.8661 51.2534 45.5926 50.5181 46.2852 49.739C46.3925 49.6182 46.4979 49.4974 46.6033 49.3745C47.168 48.7162 47.7157 48.0267 48.2239 47.3102C48.4724 46.9602 48.7133 46.604 48.9429 46.2415C49.261 45.7395 49.5622 45.2292 49.8407 44.7043C51.2373 42.0796 52.0994 39.1842 51.9977 36.1325C51.9829 35.6297 51.942 35.1282 51.8754 34.6306C51.6307 32.7913 51.3954 30.9957 51.2223 29.2397C50.4957 21.976 50.8025 15.3894 55.7283 9.20067C61.853 1.50795 71.4654 -0.0605894 80.2158 0.553912C105.514 2.32451 128.545 18.3099 148.784 37.3407C150.535 38.9849 152.264 40.6513 153.972 42.34C154.402 42.7649 154.833 43.1926 155.265 43.6231C158.465 46.8123 161.615 50.1202 164.55 53.6635C164.787 53.9509 165.024 54.2384 165.258 54.5279C165.401 54.7071 165.546 54.8841 165.687 55.0654C166.601 56.211 167.489 57.3845 168.35 58.5857C170.656 61.7747 172.692 65.1914 174.433 68.7927C177.099 74.4444 178.904 80.5443 179.775 86.8465C180.102 89.1351 180.318 91.4417 180.421 93.756C180.453 94.4372 180.473 95.1204 180.485 95.8016C180.485 96.0203 180.485 96.2369 180.485 96.4557C180.503 96.7723 180.503 97.0806 180.501 97.3972Z" fill="white"/>
<path d="M74.1551 93.9049L71.1436 153.228L74.1551 153.272L76.602 93.0717L74.1551 93.9049Z" fill="#3F3D56"/>
<path d="M63.0501 123.961H25.7824V132.918H63.0501V123.961Z" fill="#FDA402"/>
<path d="M65.4969 131.875V137.499H27.0002C25.6375 136.413 24.2911 135.295 22.961 134.145V131.875H65.4969Z" fill="#3F3D56"/>
<path d="M73.1839 119.074C73.0785 119.614 72.9411 120.147 72.7961 120.678C72.3689 122.214 71.855 123.728 71.7553 125.324C71.6216 127.432 72.1317 129.883 70.8142 131.415C70.4754 131.81 70.033 132.106 69.73 132.529C69.6833 132.595 69.6406 132.665 69.602 132.737C69.331 133.233 69.299 133.837 69.2952 134.404C69.2984 135.612 69.3694 136.819 69.5079 138.018C69.954 142.142 70.8349 146.275 69.6773 150.168C69.4676 150.843 69.2231 151.505 68.9451 152.149C68.3805 153.524 67.765 154.88 67.5805 156.37C67.445 157.474 67.4864 158.611 67.4789 159.734C66.8841 159.524 66.29 159.31 65.6964 159.092C62.1115 157.78 58.5667 156.322 55.062 154.718C55.0714 154.661 55.0808 154.603 55.0884 154.547C55.3575 152.693 54.9886 150.797 54.5406 148.989C53.5995 145.159 52.2669 141.365 51.4783 137.507C51.1607 136.001 50.9524 134.468 50.8553 132.925C50.8327 132.579 50.8195 132.231 50.8176 131.883C50.8082 131.429 50.8176 130.975 50.8346 130.517C50.8741 129.602 50.9099 128.517 50.2492 127.961C49.8859 127.659 49.406 127.607 48.9825 127.423C48.1656 127.071 47.6066 126.255 46.9591 125.601C46.6503 125.269 46.2731 125.026 45.8603 124.891C45.4474 124.757 45.0113 124.736 44.5894 124.83C40.3582 125.903 37.2488 129.875 33.3112 131.883C33.1588 131.962 33.0063 132.037 32.852 132.108C32.3426 132.315 31.8579 132.589 31.4083 132.925C31.0925 133.167 30.8634 133.525 30.7609 133.935C30.6611 134.377 30.7477 134.839 30.7966 135.293C30.8758 136.032 30.8472 136.779 30.7119 137.507C30.6609 137.79 30.5936 138.068 30.5105 138.341C30.3599 138.834 30.1586 139.318 29.9666 139.799C28.9627 139.052 27.9733 138.288 26.9983 137.507C25.6356 136.421 24.2892 135.304 22.9591 134.154L22.1517 133.435C18.6708 130.419 15.4096 127.104 12.3981 123.522C12.799 122.272 13.3787 121.11 13.6573 119.829C13.8154 119.093 13.8737 118.329 14.0921 117.614C14.3438 116.874 14.694 116.178 15.131 115.552C16.7316 113.082 18.6859 110.918 20.9169 109.145C23.249 107.295 25.9424 105.812 28.0411 103.712C28.8927 102.887 29.6269 101.924 30.2188 100.856C30.2545 100.792 30.2884 100.723 30.3185 100.648C30.4824 100.271 30.5958 99.8694 30.6555 99.4563C30.806 98.5231 30.7834 97.4982 30.8587 96.6025C33.4153 97.0923 36.0216 97.1792 38.6002 96.8608C41.6024 96.4879 44.5386 95.5651 47.5407 95.2069C47.7666 95.1777 47.9943 95.1548 48.2221 95.1339C49.1839 95.0485 50.1476 95.0298 51.1131 95.0423C51.9206 95.0423 52.7281 95.0819 53.5355 95.111L62.4252 95.4443C63.4096 95.4818 64.4147 95.5235 65.3313 95.9213C66.4192 96.3942 67.2907 97.3357 67.989 98.371C68.0774 98.5043 68.1659 98.6376 68.2487 98.7751C68.8233 99.7028 69.2841 100.711 69.619 101.773C69.6547 101.881 69.6886 101.981 69.7206 102.1C69.8053 102.389 69.8787 102.681 69.9446 102.977C69.9954 103.208 70.0406 103.439 70.082 103.672C70.289 104.826 70.4114 106.005 70.7389 107.12C70.7615 107.201 70.7859 107.282 70.8123 107.361C71.2057 108.582 71.8588 109.676 72.3519 110.849C72.7075 111.697 72.9789 112.587 73.1613 113.5C73.5299 115.335 73.5376 117.236 73.1839 119.074Z" fill="#FDA402"/>
<path d="M46.1629 44.5282C45.3687 43.8283 44.2167 44.3407 43.2869 44.7927C42.5074 45.1738 41.7049 45.4947 40.8852 45.753C40.7175 45.8245 40.5356 45.8453 40.3582 45.8134C39.9818 45.7134 39.8237 45.2198 39.5432 44.9198C39.0557 44.4011 38.2577 44.524 37.629 44.8052C37.0004 45.0864 36.3792 45.4926 35.7054 45.4302C34.9864 45.3677 34.3615 44.7802 33.635 44.7615C32.3551 44.7282 31.2804 46.4738 30.0701 46.0113C29.3323 45.7301 28.7526 44.6678 28.026 44.9698C27.4614 45.2073 27.4105 46.0717 27.0699 46.6362C26.669 47.2945 25.8878 47.4799 25.2197 47.7715C23.1135 48.6922 21.7188 51.2898 21.9936 53.777C22.146 55.1497 22.7464 56.4079 23.1436 57.7181C24.3218 61.528 23.9172 65.8253 25.4022 69.4999C25.5904 69.304 25.6959 69.2311 25.8784 69.0374C25.4089 70.1152 25.3183 71.3477 25.6243 72.4953C25.7806 73.0723 26.0346 73.6097 26.2266 74.1742C26.4261 74.8074 26.587 75.4546 26.7085 76.1115L28.346 84.1062C28.9859 87.2308 29.6278 90.3554 29.7388 93.555C29.808 95.6354 29.664 97.7179 29.3097 99.7625C32.276 99.2188 34.9902 97.7627 37.9961 97.7815C39.099 97.7815 40.1926 97.9898 41.2861 98.1564C44.4745 98.6502 47.6905 98.8918 50.9099 98.8793C51.4106 98.9108 51.912 98.8329 52.3855 98.6501C52.7996 98.4543 53.1384 98.1064 53.5299 97.8544C54.296 97.3545 55.2239 97.2295 56.1066 97.2295C60.1327 97.1482 64.0119 98.7793 68.0116 99.3542C69.5907 95.6859 69.6848 91.2907 68.4727 87.4558C68.1132 86.3164 67.6295 85.2061 67.4864 84.0083C67.429 83.272 67.4139 82.5325 67.4413 81.794C67.435 79.9036 67.1272 78.0293 66.5322 76.2573C66.2988 75.5636 66.0183 74.8575 66.0428 74.118C66.0673 73.3785 66.3966 72.689 66.7204 72.0349C67.3773 70.7018 68.0379 69.3561 68.9658 68.2313C69.9164 67.0689 71.1059 66.1836 72.2823 65.315L75.1865 63.1569C74.7894 60.3802 74.2774 57.4556 73.214 54.9018C72.1505 52.348 70.5601 50.0004 68.4087 48.5068C67.6834 48.0239 66.9243 47.606 66.1388 47.257C65.0396 46.7446 63.8952 46.2925 62.7038 46.2155C61.3486 46.1301 60.0141 46.5321 58.6758 46.7821C54.4635 47.5674 49.5057 47.4715 46.1629 44.5282Z" fill="#FDA402"/>
<path d="M77.9195 92.7134L76.538 94.6444L73.933 98.2834L70.9215 102.489L70.0801 103.664H68.4482L28.0392 103.716L2.73296 103.747H1.60364C1.45306 103.227 1.31378 102.706 1.18579 102.164C0.997566 101.389 0.83256 100.605 0.690768 99.8103C0.660652 99.6583 0.634301 99.5062 0.609833 99.3521L9.79123 92.7092L13.2432 92.6884L23.8024 92.6217L29.6993 92.5842H30.7759H31.4516L35.3817 92.5613L65.3351 92.3717L66.8672 92.3613H67.5316L69.2915 92.3509L75.8397 92.3092L77.097 91.7802L77.1892 91.8885L77.9195 92.7134Z" fill="#3F3D56"/>
<path d="M77.3548 91.6719L77.1986 91.8802L76.1709 93.2196L74.0553 95.9838L69.619 101.773L30.3185 100.662L0.683244 99.8291C0.653129 99.6771 0.626778 99.525 0.60231 99.3708C0.152441 96.6976 -0.0462486 93.98 0.00941503 91.2615L3.29574 89.3993L4.04862 88.9702L9.90793 85.6373L15.0501 82.721L28.4627 84.6499L31.4328 85.0769L32.7767 85.2686L34.7436 85.5519L34.9092 85.5769L65.7529 90.0034L69.1616 90.4929L71.1624 90.7803L77.3285 91.6677L77.3548 91.6719Z" fill="#504F60"/>
<path d="M70.9553 101.671L70.9233 102.489L70.7351 107.111L69.7225 132.525L69.5079 138.018L68.9433 152.149L68.6252 160.131L67.477 159.734C66.8823 159.524 66.2881 159.31 65.6946 159.092L68.4482 103.683L68.5066 102.52L69.7187 102.104L70.9553 101.671Z" fill="#3F3D56"/>
<path d="M2.81954 101.61L2.73484 103.749L2.61061 106.874C2.25174 105.887 1.92298 104.881 1.62434 103.856L1.5961 103.754C1.44553 103.233 1.30624 102.712 1.17825 102.17L2.81954 101.61Z" fill="#3F3D56"/>
<path d="M52.0392 70.1143C56.8209 70.1143 60.6973 64.3321 60.6973 57.1994C60.6973 50.0666 56.8209 44.2844 52.0392 44.2844C47.2574 44.2844 43.381 50.0666 43.381 57.1994C43.381 64.3321 47.2574 70.1143 52.0392 70.1143Z" fill="#A1616A"/>
<path opacity="0.1" d="M52.0392 70.1143C56.8209 70.1143 60.6973 64.3321 60.6973 57.1994C60.6973 50.0666 56.8209 44.2844 52.0392 44.2844C47.2574 44.2844 43.381 50.0666 43.381 57.1994C43.381 64.3321 47.2574 70.1143 52.0392 70.1143Z" fill="black"/>
<path d="M53.2626 62.7195C59.9155 62.7195 65.3087 56.7508 65.3087 49.3879C65.3087 42.0251 59.9155 36.0564 53.2626 36.0564C46.6098 36.0564 41.2165 42.0251 41.2165 49.3879C41.2165 56.7508 46.6098 62.7195 53.2626 62.7195Z" fill="#A1616A"/>
<path d="M53.5016 28.8407C52.7662 28.9056 52.0359 29.0289 51.3164 29.2094C49.4116 29.7219 47.7647 30.8592 46.1611 31.9757C45.442 32.4778 44.7023 33.0006 44.2563 33.738C43.4544 35.0607 43.765 36.7438 43.3152 38.2124C43.0818 38.9665 42.6526 39.6435 42.2894 40.3454C41.2899 42.2702 40.7667 44.3845 40.2528 46.478C40.1474 46.9112 40.1173 47.4987 40.5446 47.6653C40.7906 47.7219 41.0465 47.6897 41.2748 47.5736C42.6244 47.08 44.3391 46.9383 45.3404 47.9403C46.3417 48.9422 46.257 50.7191 47.4485 51.4815C48.8131 52.3626 50.9437 51.2981 52.1822 52.3376C52.713 52.7834 52.905 53.4979 53.3398 54.0353C54.3524 55.2851 56.3005 55.2247 57.9211 54.9727C58.8509 54.8268 59.9915 54.7289 60.5562 55.4518C60.8272 55.7934 60.9044 56.2621 61.2187 56.5704C61.7833 57.1286 62.8167 56.8453 63.3682 56.2725C63.9197 55.6996 64.1832 54.9247 64.6424 54.2811C65.5365 53.0313 67.1081 52.3501 68.0304 51.1148C68.8021 50.0733 69.0355 48.7693 69.2463 47.5112L70.0312 42.8472C70.3493 40.9558 70.6391 38.8894 69.6773 37.2229C69.3348 36.623 68.8435 36.1064 68.548 35.4857C68.3504 35.0691 68.2393 34.6295 68.0097 34.2358C67.7374 33.8257 67.412 33.4621 67.0441 33.1568L65.1864 31.455C64.5512 30.8397 63.872 30.2824 63.1555 29.7885C60.5035 28.0783 56.532 28.5283 53.5016 28.8407Z" fill="#1E1A1A"/>
<path d="M13.8248 63.1819C13.3787 63.7068 12.9665 64.2734 12.4884 64.765C12.0679 65.179 11.6281 65.5683 11.1709 65.9316C10.4331 66.5426 9.71155 67.1751 9.00635 67.8292C8.27063 68.473 7.60489 69.2091 7.0225 70.0227C6.01741 71.5162 5.54121 73.3743 4.60011 74.9178C3.76817 76.2864 2.59556 77.3675 1.75045 78.7257C1.3797 79.2967 1.10432 79.9366 0.937338 80.615C0.812699 81.2716 0.756494 81.9419 0.769822 82.6127C0.752882 83.7125 0.737825 84.8249 0.941103 85.9018C1.14438 86.9787 1.59046 88.0369 2.35464 88.7431C3.06423 89.3992 3.98086 89.7013 4.87867 89.9513C5.3417 90.0783 5.84236 90.1971 6.2828 89.995C6.60508 89.8148 6.88483 89.5538 7.09968 89.2326L9.39032 86.3163C10.9224 84.3583 12.5148 82.3585 14.6172 81.2128C15.276 80.8566 15.9705 80.5879 16.6312 80.2421C19.4319 78.7486 21.412 75.6907 22.1799 72.3578C22.3681 71.5433 22.4886 70.7122 22.6109 69.881L22.9422 67.6022C22.9676 67.4879 22.9676 67.3685 22.9422 67.2543C22.8903 67.1258 22.8068 67.0161 22.7013 66.9377C21.1057 65.5116 19.6119 63.9517 18.2329 62.2716C17.9054 61.8717 17.5986 61.3238 17.2203 60.9885C16.746 60.5719 16.7817 60.6031 16.2114 60.9885C15.3341 61.6032 14.532 62.3404 13.8248 63.1819Z" fill="#A1616A"/>
<path d="M29.4941 78.3466C29.4751 78.2983 29.4474 78.2546 29.4128 78.2184C29.3781 78.1822 29.3372 78.154 29.2924 78.1357C29.2477 78.1174 29.2001 78.1093 29.1525 78.1119C29.1048 78.1145 29.0582 78.1277 29.0153 78.1507C28.9724 78.1738 28.9341 78.2062 28.9028 78.246C28.8715 78.2858 28.8478 78.3322 28.8331 78.3824C28.8184 78.4326 28.813 78.4856 28.8173 78.5381C28.8216 78.5907 28.8354 78.6418 28.858 78.6883L28.6697 78.7903L34.2825 91.522L35.297 90.9741L29.6842 78.2342L29.4941 78.3466Z" fill="#3F3D56"/>
<path opacity="0.04" d="M13.8248 63.1819C13.3787 63.7068 12.9665 64.2734 12.4884 64.765C12.0679 65.179 11.6281 65.5683 11.1709 65.9316C10.4331 66.5426 9.71155 67.1751 9.00635 67.8292C8.27063 68.473 7.60489 69.2091 7.0225 70.0227C6.01741 71.5162 5.54121 73.3743 4.60011 74.9178C3.76817 76.2864 2.59556 77.3675 1.75045 78.7257C1.3797 79.2967 1.10432 79.9366 0.937338 80.615C0.812699 81.2716 0.756494 81.9419 0.769822 82.6127C0.752882 83.7125 0.737825 84.8249 0.941103 85.9018C1.14438 86.9787 1.59046 88.0369 2.35464 88.7431C3.06423 89.3992 3.98086 89.7013 4.87867 89.9513C5.3417 90.0783 5.84236 90.1971 6.2828 89.995C6.60508 89.8148 6.88483 89.5538 7.09968 89.2326L9.39032 86.3163C10.9224 84.3583 12.5148 82.3585 14.6172 81.2128C15.276 80.8566 15.9705 80.5879 16.6312 80.2421C19.4319 78.7486 21.412 75.6907 22.1799 72.3578C22.3681 71.5433 22.4886 70.7122 22.6109 69.881L22.9422 67.6022C22.9676 67.4879 22.9676 67.3685 22.9422 67.2543C22.8903 67.1258 22.8068 67.0161 22.7013 66.9377C21.1057 65.5116 19.6119 63.9517 18.2329 62.2716C17.9054 61.8717 17.5986 61.3238 17.2203 60.9885C16.746 60.5719 16.7817 60.6031 16.2114 60.9885C15.3341 61.6032 14.532 62.3404 13.8248 63.1819Z" fill="black"/>
<path d="M78.7119 86.6455C78.6931 87.9745 78.646 89.3431 78.1473 90.5554C77.9327 91.0803 77.5995 91.5969 77.1008 91.7698C76.7989 91.847 76.4865 91.8597 76.1804 91.8073C72.4877 91.4481 68.7667 91.7748 65.1713 92.7738C66.1313 90.6491 65.5798 88.1016 65.8452 85.7435C65.9186 85.0999 66.0522 84.4666 66.103 83.8209C66.2913 81.5295 65.4047 79.3048 64.9982 77.0426C64.6453 75.0844 64.6453 73.0683 64.9982 71.1101C65.0674 70.606 65.224 70.1215 65.4593 69.6832C65.735 69.2567 66.0973 68.9078 66.5171 68.6646C68.0417 67.7043 69.8392 67.5939 71.552 67.7209C72.7058 67.8063 75.019 67.6855 75.9808 68.4708C77.033 69.3311 77.3661 72.2203 77.6504 73.5556C78.0759 75.6034 78.3653 77.683 78.5162 79.7777C78.7006 82.0607 78.7402 84.3541 78.7119 86.6455Z" fill="#A1616A"/>
<path d="M11.2895 91.2574L18.0654 96.2567L48.5571 95.0069L28.4175 91.2574H11.2895Z" fill="white"/>
<path d="M20.2243 51.5356C19.1119 52.6209 18.1689 53.8999 17.1149 55.056C15.6694 56.6433 14.0262 57.9931 12.3906 59.3366C12.977 59.5181 13.5108 59.8649 13.9398 60.3433C14.3687 60.8216 14.678 61.415 14.8374 62.0654C14.909 62.3717 14.9447 62.6904 15.0257 62.9903C15.2139 63.7006 15.628 64.3131 16.0722 64.8651C17.9807 67.246 20.6516 69.0083 21.7771 71.9475C21.8139 72.0905 21.8935 72.2154 22.003 72.3016C22.0946 72.3465 22.1963 72.3595 22.2947 72.3391C23.313 72.2203 24.0922 71.3121 24.7416 70.4289C26.0968 68.5542 27.2732 66.4836 27.9413 64.1964C28.6095 61.9092 28.7168 59.3804 27.9884 57.114C27.6251 55.985 27.0642 54.9476 26.5071 53.9207C26.019 53.0222 25.5321 52.1251 25.0465 51.2294C24.7924 50.7565 24.4687 49.7962 23.9699 49.5629C22.8933 49.0505 20.9151 50.7711 20.2243 51.5356Z" fill="#FDA402"/>
<path d="M75.6627 64.9983L77.2645 69.1644C75.5208 68.4902 73.6572 68.2849 71.8276 68.5656C69.998 68.8464 68.2551 69.605 66.743 70.7788C65.8301 71.5016 64.9925 72.4098 64.5803 73.5639C64.3769 73.6067 64.1666 73.585 63.9738 73.5013C63.781 73.4177 63.6135 73.2754 63.4905 73.091C63.2496 72.717 63.1099 72.2748 63.0877 71.8162C62.939 70.2164 63.4868 68.6479 64.0288 67.1522C64.281 66.4523 64.5408 65.7378 64.9888 65.1692C65.4367 64.6005 66.0315 64.2255 66.6263 63.8714C68.5238 62.71 70.5111 61.7382 72.5646 60.9676C73.4304 60.6573 74.3377 60.6635 74.8233 61.5592C75.386 62.6278 75.2223 63.861 75.6627 64.9983Z" fill="#FDA402"/>
<path d="M11.329 77.4988C11.7299 77.8529 12.0819 78.2716 12.4941 78.6091C12.93 78.9441 13.3939 79.2322 13.8794 79.4694L15.7352 80.4568C16.3103 80.7876 16.9121 81.0582 17.5327 81.265C18.327 81.5004 19.1609 81.5233 19.9589 81.742C20.9659 82.017 21.8863 82.5898 22.8782 82.921C23.8701 83.2522 25.0314 83.3064 25.8596 82.6169C26.3772 82.1857 26.7687 81.4733 27.4106 81.3671C27.8246 81.3067 28.2237 81.5275 28.5926 81.742L33.4223 84.5521C34.0736 84.9312 34.7624 85.352 35.1031 86.0748C35.4438 86.7976 35.2142 87.8954 34.4971 88.0828C34.2471 88.1146 33.9958 88.1306 33.7442 88.1307C33.4957 88.1641 33.2247 88.3266 33.1908 88.6036C33.1895 88.7756 33.2305 88.9448 33.3094 89.0931C33.5258 89.643 33.5898 90.3013 33.3376 90.8345C33.0854 91.3678 32.4662 91.699 31.9711 91.4595C32.0558 92.2656 31.2634 92.8301 30.5576 93.0447C28.777 93.5842 26.8892 93.253 25.0691 92.9114C24.3539 92.778 23.6273 92.6406 22.9761 92.2864C22.6636 92.1177 22.3738 91.9011 22.0576 91.7448C21.1899 91.3178 20.2036 91.3741 19.255 91.3928C14.8675 91.4782 10.5178 90.5783 6.20375 89.6826C5.40382 89.516 4.58129 89.3389 3.89805 88.8494C2.58051 87.8995 2.09114 85.9498 2.30759 84.225C2.52405 82.5002 3.31457 80.938 4.09192 79.4215L5.0989 77.4572C5.23054 77.1562 5.41478 76.8872 5.64098 76.6656C7.12227 75.4137 10.0604 76.3698 11.329 77.4988Z" fill="#A1616A"/>
<path opacity="0.04" d="M11.329 77.4988C11.7299 77.8529 12.0819 78.2716 12.4941 78.6091C12.93 78.9441 13.3939 79.2322 13.8794 79.4694L15.7352 80.4568C16.3103 80.7876 16.9121 81.0582 17.5327 81.265C18.327 81.5004 19.1609 81.5233 19.9589 81.742C20.9659 82.017 21.8863 82.5898 22.8782 82.921C23.8701 83.2522 25.0314 83.3064 25.8596 82.6169C26.3772 82.1857 26.7687 81.4733 27.4106 81.3671C27.8246 81.3067 28.2237 81.5275 28.5926 81.742L33.4223 84.5521C34.0736 84.9312 34.7624 85.352 35.1031 86.0748C35.4438 86.7976 35.2142 87.8954 34.4971 88.0828C34.2471 88.1146 33.9958 88.1306 33.7442 88.1307C33.4957 88.1641 33.2247 88.3266 33.1908 88.6036C33.1895 88.7756 33.2305 88.9448 33.3094 89.0931C33.5258 89.643 33.5898 90.3013 33.3376 90.8345C33.0854 91.3678 32.4662 91.699 31.9711 91.4595C32.0558 92.2656 31.2634 92.8301 30.5576 93.0447C28.777 93.5842 26.8892 93.253 25.0691 92.9114C24.3539 92.778 23.6273 92.6406 22.9761 92.2864C22.6636 92.1177 22.3738 91.9011 22.0576 91.7448C21.1899 91.3178 20.2036 91.3741 19.255 91.3928C14.8675 91.4782 10.5178 90.5783 6.20375 89.6826C5.40382 89.516 4.58129 89.3389 3.89805 88.8494C2.58051 87.8995 2.09114 85.9498 2.30759 84.225C2.52405 82.5002 3.31457 80.938 4.09192 79.4215L5.0989 77.4572C5.23054 77.1562 5.41478 76.8872 5.64098 76.6656C7.12227 75.4137 10.0604 76.3698 11.329 77.4988Z" fill="black"/>
<path d="M68.7852 81.0982C67.8045 81.6106 66.679 81.6606 65.6551 82.0543C64.6311 82.448 63.7616 83.1563 62.8223 83.7333C60.3755 85.2456 57.5522 85.8163 54.7797 86.36C53.0989 86.6933 51.3917 87.0266 49.6977 86.9474C47.4052 86.8391 45.203 85.9934 42.982 85.356C40.761 84.7186 38.3913 84.2895 36.191 85.006C35.042 85.3932 33.9917 86.0746 33.1251 86.9949C32.2585 87.9153 31.6001 89.0487 31.2032 90.3032C30.742 91.801 30.6781 93.4153 30.7665 94.9943C31.2295 95.3713 31.877 94.8485 32.1292 94.2756C32.3814 93.7028 32.5188 93.0008 33.0082 92.6675C33.8571 92.9862 34.0641 94.2381 34.7643 94.8568C35.201 95.2442 35.7845 95.3463 36.3397 95.4338L39.2007 95.8837C39.8896 95.9921 40.6895 96.065 41.1883 95.5275C41.4311 95.2672 41.5647 94.9026 41.7868 94.6235C42.2423 94.0652 43.0027 93.9694 43.6803 94.0444C45.7959 94.2777 47.7798 95.7963 49.8803 95.4359C50.6031 95.313 51.275 94.9714 51.9639 94.7027C56.0464 93.107 60.5825 94.0777 64.8307 93.1633C66.4512 92.8154 68.0116 92.1988 69.5531 91.5489C70.3907 91.1969 71.2377 90.8282 71.9529 90.2324C72.6305 89.6558 73.1649 88.8983 73.5059 88.0309C73.847 87.1634 73.9835 86.2144 73.9029 85.2727C73.7453 83.8374 73.0983 82.523 72.0941 81.5981C71.7628 81.2857 71.328 80.6878 70.9309 80.492C70.1724 80.1233 69.4289 80.7628 68.7852 81.0982Z" fill="#A1616A"/>
<g opacity="0.1">
<path opacity="0.1" d="M63.2854 54.4873C62.9711 54.179 62.8939 53.7103 62.6228 53.3687C62.0582 52.6458 60.9176 52.7437 59.9878 52.8896C58.3672 53.1416 56.4116 53.1999 55.4065 51.9522C54.9717 51.4148 54.7797 50.7024 54.2489 50.2545C53.0104 49.213 50.8798 50.2795 49.5152 49.3984C48.3237 48.6297 48.4009 46.8466 47.4071 45.8572C46.4133 44.8677 44.6911 44.9969 43.3415 45.4905C43.1132 45.6066 42.8573 45.6388 42.6112 45.5822C42.184 45.4156 42.2141 44.8281 42.3195 44.3949C42.8333 42.3014 43.3566 40.1871 44.356 38.2623C44.7193 37.5604 45.1485 36.8834 45.3818 36.1293C45.7903 34.8086 45.5814 33.3151 46.1178 32.0653C45.5418 32.4819 44.9885 32.936 44.6327 33.5234C43.8309 34.8461 44.1415 36.5292 43.6916 37.9978C43.4582 38.7519 43.0291 39.4289 42.6658 40.1308C41.6664 42.0556 41.1431 44.1699 40.6293 46.2634C40.5239 46.6966 40.4938 47.2841 40.921 47.4507C41.167 47.5073 41.423 47.4751 41.6513 47.359C43.0009 46.8654 44.7155 46.7237 45.7169 47.7257C46.7182 48.7276 46.6335 50.5045 47.825 51.2669C49.1895 52.148 51.3202 51.0836 52.5587 52.123C53.0895 52.5688 53.2815 53.2833 53.7162 53.8207C54.7289 55.0705 56.677 55.0101 58.2975 54.7581C59.2273 54.6122 60.368 54.5143 60.9326 55.2372C61.2037 55.5788 61.2808 56.0475 61.5952 56.3558C62.1598 56.914 63.1932 56.6307 63.7446 56.0579C64.0982 55.6504 64.4008 55.1922 64.6443 54.6956C64.155 54.8601 63.6336 54.8351 63.2854 54.4873Z" fill="black"/>
<path opacity="0.1" d="M66.7148 52.1959C66.5935 52.3687 66.481 52.5488 66.3778 52.7354C67.1006 52.1647 67.8667 51.6314 68.4068 50.9044C68.5471 50.7163 68.673 50.5156 68.7833 50.3045C68.0323 50.9002 67.2493 51.4481 66.7148 52.1959Z" fill="black"/>
</g>
<path d="M104.741 93.4446L105.306 153.228L107.941 152.812L107.376 93.4446H104.741Z" fill="#3F3D56"/>
<path d="M120.551 104.276L121.116 164.06L123.751 163.643L123.186 104.276H120.551Z" fill="#3F3D56"/>
<path d="M169.777 134.477L169.765 133.329V132.646L169.666 122.13L169.509 105.691L169.483 104.272H166.848L166.861 105.639L166.944 114.444L166.98 118.256L167.01 121.343L167.059 126.68L167.089 129.827V130.161L167.128 134.298L167.162 137.945L167.377 137.682C167.722 137.256 168.06 136.823 168.39 136.383L169.777 134.477Z" fill="#3F3D56"/>
<path d="M117.634 113.963L116.128 116.454L117.634 127.805L130.433 131.681H151.137L163.56 132.512L169.477 128.03L168.454 120.331L163.936 113.963H117.634Z" fill="#FDA402"/>
<path d="M116.128 116.454L115.375 123.374C115.375 123.374 111.423 136.941 143.232 136.11C175.041 135.279 169.583 132.51 169.583 132.51L169.395 124.482C169.395 124.482 170.503 128.282 154.337 127.767C138.171 127.253 123.092 125.59 123.092 125.59C123.092 125.59 117.446 126.696 116.128 116.454Z" fill="#3F3D56"/>
<path d="M142.63 54.429C140.815 55.3434 139.441 57.1161 138.521 59.0763C137.6 61.0364 137.083 63.1882 136.573 65.3254C136.034 67.5793 135.494 69.8394 135.216 72.1495C134.719 76.2573 135.091 80.5755 136.797 84.2646C138.502 87.9537 141.653 90.9303 145.342 91.6407C146.767 91.9177 148.231 91.8615 149.671 91.6969C152.274 91.3919 154.837 90.7666 157.315 89.8326C159.903 88.864 162.596 87.3725 163.748 84.6249C164.416 83.0314 164.473 81.215 164.441 79.461C164.352 74.6806 163.7 69.9335 162.5 65.34C162.152 64.0069 161.747 62.6633 161.009 61.5405C160.272 60.4177 159.263 59.5949 158.233 58.8325C153.831 55.5517 148.045 51.7043 142.63 54.429Z" fill="#FBBEBE"/>
<path opacity="0.05" d="M142.63 54.429C140.815 55.3434 139.441 57.1161 138.521 59.0763C137.6 61.0364 137.083 63.1882 136.573 65.3254C136.034 67.5793 135.494 69.8394 135.216 72.1495C134.719 76.2573 135.091 80.5755 136.797 84.2646C138.502 87.9537 141.653 90.9303 145.342 91.6407C146.767 91.9177 148.231 91.8615 149.671 91.6969C152.274 91.3919 154.837 90.7666 157.315 89.8326C159.903 88.864 162.596 87.3725 163.748 84.6249C164.416 83.0314 164.473 81.215 164.441 79.461C164.352 74.6806 163.7 69.9335 162.5 65.34C162.152 64.0069 161.747 62.6633 161.009 61.5405C160.272 60.4177 159.263 59.5949 158.233 58.8325C153.831 55.5517 148.045 51.7043 142.63 54.429Z" fill="black"/>
<path d="M140.591 80.6484C141.116 81.4473 141.752 82.1502 142.473 82.7315C144.265 84.1021 146.565 84.2875 148.741 84.3625C150.488 84.4208 152.491 84.3104 153.586 82.8023C154.079 82.1232 154.301 81.2567 154.501 80.413C155.732 75.2326 156.607 69.9564 157.117 64.6297L162.101 64.6485C164.258 74.87 164.081 85.4957 163.893 95.9922L163.62 111.298L160.409 110.921C152.784 110.028 145.148 109.134 137.482 108.98C132.99 108.889 128.497 109.053 124.02 109.472L131.013 86.4622C131.92 83.4709 132.837 80.4401 133.049 77.2968C133.356 72.737 132.2 67.923 133.802 63.7048C133.93 63.3653 134.092 63.0133 134.384 62.8362C134.675 62.6591 135.044 62.7029 135.379 62.7508C136.012 62.8445 137.945 62.7508 138.404 63.1987C139.082 63.8486 138.634 63.9465 138.395 64.9942C137.967 66.869 137.563 68.6042 137.568 70.5581C137.574 74.1055 138.568 77.8509 140.591 80.6484Z" fill="#FDA402"/>
<path d="M169.777 134.477C170.616 133.243 171.407 131.967 172.15 130.646C171.774 129.754 171.36 128.884 171.03 127.973C170.526 126.578 170.236 125.099 169.95 123.63C169.852 123.13 169.755 122.63 169.658 122.13C168.604 116.692 167.614 111.176 167.409 105.662C167.39 105.203 167.378 104.745 167.373 104.287C167.373 104.22 167.373 104.156 167.373 104.079C167.373 103.577 167.373 103.075 167.373 102.575C167.396 101.325 167.467 100.065 167.597 98.8106C167.622 98.5648 167.65 98.319 167.68 98.0732C167.68 98.019 167.691 97.9669 167.699 97.9128L180.498 97.3962L181.574 97.3524C182.314 97.3233 183.097 97.2774 183.707 96.8129C184.733 96.0339 184.853 94.4362 184.836 93.0634C184.774 89.5938 184.419 86.1382 183.775 82.7419C183.289 80.1881 182.596 77.578 181.042 75.6158C179.766 74.0035 177.917 72.8307 177.253 70.8247C177.006 70.079 176.944 69.2604 176.624 68.548C176.304 67.8355 175.775 67.3127 175.277 66.7628C173.521 64.8377 172.065 62.6052 170.966 60.1553C170.204 58.4555 169.378 56.5808 168.382 55.406C168.333 55.3455 168.284 55.2893 168.233 55.2351C167.386 54.3082 166.417 53.902 165.269 54.5332C165.062 54.6478 164.866 54.7831 164.682 54.9373C164.272 55.2833 163.898 55.6772 163.565 56.1121C162.406 57.5879 161.388 59.1936 160.529 60.9031C159.926 62.1067 159.407 63.3603 158.979 64.6526C158.64 65.6736 158.361 66.7172 158.141 67.7772C157.979 68.5625 157.851 69.3562 157.749 70.1519C157.373 73.1432 157.373 76.1928 157.426 79.2215C157.482 82.0045 157.593 84.7937 157.821 87.5662C157.877 88.237 157.94 88.907 158.009 89.5764C158.147 90.8998 158.318 92.2191 158.521 93.5342C158.602 94.0362 158.685 94.5382 158.777 95.0382C158.8 95.1715 158.824 95.3048 158.849 95.436L158.86 95.4923C159.109 96.6543 159.301 97.8301 159.438 99.0147C159.453 99.1633 159.464 99.3112 159.472 99.4584C159.503 100.139 159.498 100.822 159.457 101.502C159.413 102.306 159.346 103.108 159.312 103.912C159.312 104.054 159.312 104.193 159.299 104.329C159.289 104.735 159.299 105.141 159.299 105.547C159.337 106.519 159.441 107.486 159.611 108.441C159.928 110.216 160.477 111.931 161.239 113.532C161.311 113.682 161.384 113.829 161.457 113.975C162.412 115.862 163.616 117.593 164.499 119.524C165.261 121.262 165.829 123.095 166.193 124.984C166.319 125.608 166.438 126.233 166.551 126.859C166.726 127.859 166.882 128.867 167.042 129.875C167.057 129.975 167.074 130.083 167.091 130.175C167.304 131.512 167.528 132.844 167.816 134.15C167.983 134.91 168.171 135.66 168.391 136.397L169.777 134.477Z" fill="#1E1A1A"/>
<path d="M167.262 118.058C167.262 118.245 167.251 118.433 167.243 118.622C167.21 119.536 167.134 120.448 167.016 121.353C166.86 122.589 166.586 123.803 166.201 124.976C165.945 125.747 165.619 126.487 165.229 127.186C164.883 127.806 164.478 128.384 164.021 128.909C162.892 130.208 161.265 130.623 159.692 131.171C158.968 131.403 158.268 131.719 157.604 132.114C157.486 132.187 157.369 132.266 157.256 132.35L155.288 133.793C154.674 134.241 154.047 134.706 153.626 135.37C153.556 135.483 153.494 135.601 153.437 135.722C153.171 136.334 152.976 136.981 152.858 137.647C151.834 142.367 150.808 147.092 150.106 151.883C150.059 152.199 150.014 152.518 149.965 152.837L149.948 152.937C149.939 152.913 149.929 152.89 149.918 152.868C144.881 156.238 139.658 159.28 134.276 161.715L133.108 150.883C132.986 150.002 132.945 149.11 132.987 148.221C133.098 146.819 133.614 145.49 133.753 144.092C133.885 142.724 133.651 141.342 133.081 140.12C132.859 139.645 132.581 139.178 132.53 138.647C132.479 138.116 132.756 137.63 133.237 137.576C133.614 137.114 133.644 136.483 133.533 135.858C133.474 135.531 133.386 135.213 133.269 134.906C132.949 134.035 132.545 133.087 132.82 132.198C132.892 132.036 132.925 131.857 132.914 131.677C132.916 131.666 132.916 131.655 132.914 131.644C132.85 131.41 132.599 131.308 132.47 131.11C132.225 130.742 132.47 130.24 132.62 129.815C132.767 129.358 132.852 128.88 132.872 128.396C132.893 128.127 132.908 127.857 132.934 127.59C132.971 127.229 133.03 126.871 133.109 126.519C133.567 124.524 134.666 122.782 136.202 121.62C136.934 121.074 137.749 120.676 138.496 120.162C139.262 119.591 139.992 118.964 140.683 118.287C142.341 116.76 144.065 115.319 145.854 113.967C147.778 112.513 149.771 111.173 151.824 109.955C152.263 109.692 152.703 109.437 153.142 109.188C153.62 108.911 154.101 108.647 154.585 108.399C156.136 107.58 157.896 107.886 159.611 108.432C160.33 108.659 161.04 108.93 161.725 109.176C162.394 109.417 163.037 109.736 163.644 110.13C165.163 111.117 166.419 112.575 166.94 114.417C166.941 114.429 166.941 114.44 166.94 114.452C167.271 115.606 167.292 116.844 167.262 118.058Z" fill="#0677F9"/>
<path opacity="0.1" d="M167.262 118.058C167.262 118.245 167.251 118.433 167.243 118.622C167.21 119.536 167.134 120.448 167.016 121.353C166.86 122.589 166.586 123.803 166.201 124.976C165.945 125.747 165.619 126.487 165.229 127.186C164.883 127.806 164.478 128.384 164.021 128.909C162.892 130.208 161.265 130.623 159.692 131.171C158.968 131.403 158.268 131.719 157.604 132.114C157.486 132.187 157.369 132.266 157.256 132.35L155.288 133.793C154.674 134.241 154.047 134.706 153.626 135.37C153.556 135.483 153.494 135.601 153.437 135.722C153.171 136.334 152.976 136.981 152.858 137.647C151.834 142.367 150.808 147.092 150.106 151.883C150.059 152.199 150.014 152.518 149.965 152.837L149.948 152.937C149.939 152.913 149.929 152.89 149.918 152.868C144.881 156.238 139.658 159.28 134.276 161.715L133.108 150.883C132.986 150.002 132.945 149.11 132.987 148.221C133.098 146.819 133.614 145.49 133.753 144.092C133.885 142.724 133.651 141.342 133.081 140.12C132.859 139.645 132.581 139.178 132.53 138.647C132.479 138.116 132.756 137.63 133.237 137.576C133.614 137.114 133.644 136.483 133.533 135.858C133.474 135.531 133.386 135.213 133.269 134.906C132.949 134.035 132.545 133.087 132.82 132.198C132.892 132.036 132.925 131.857 132.914 131.677C132.916 131.666 132.916 131.655 132.914 131.644C132.85 131.41 132.599 131.308 132.47 131.11C132.225 130.742 132.47 130.24 132.62 129.815C132.767 129.358 132.852 128.88 132.872 128.396C132.893 128.127 132.908 127.857 132.934 127.59C132.971 127.229 133.03 126.871 133.109 126.519C133.567 124.524 134.666 122.782 136.202 121.62C136.934 121.074 137.749 120.676 138.496 120.162C139.262 119.591 139.992 118.964 140.683 118.287C142.341 116.76 144.065 115.319 145.854 113.967C147.778 112.513 149.771 111.173 151.824 109.955C152.263 109.692 152.703 109.437 153.142 109.188C153.62 108.911 154.101 108.647 154.585 108.399C156.136 107.58 157.896 107.886 159.611 108.432C160.33 108.659 161.04 108.93 161.725 109.176C162.394 109.417 163.037 109.736 163.644 110.13C165.163 111.117 166.419 112.575 166.94 114.417C166.941 114.429 166.941 114.44 166.94 114.452C167.271 115.606 167.292 116.844 167.262 118.058Z" fill="black"/>
<path d="M149.391 83.5542C149.372 83.5058 149.344 83.4622 149.309 83.4259C149.275 83.3897 149.234 83.3616 149.189 83.3433C149.144 83.325 149.097 83.3169 149.049 83.3195C149.001 83.322 148.955 83.3352 148.912 83.3583C148.869 83.3813 148.831 83.4137 148.799 83.4535C148.768 83.4933 148.744 83.5397 148.73 83.5899C148.715 83.6402 148.709 83.6931 148.714 83.7457C148.718 83.7983 148.732 83.8493 148.754 83.8958L148.566 83.9979L154.179 96.7295L155.193 96.1817L149.581 83.4417L149.391 83.5542Z" fill="#3F3D56"/>
<path d="M156.407 70.2185C163.06 70.2185 168.454 64.2498 168.454 56.887C168.454 49.5242 163.06 43.5554 156.407 43.5554C149.755 43.5554 144.361 49.5242 144.361 56.887C144.361 64.2498 149.755 70.2185 156.407 70.2185Z" fill="#FBBEBE"/>
<path d="M172.306 48.6339C172.25 47.5741 172.108 46.5221 171.881 45.4906C171.173 42.1222 169.88 38.806 167.654 36.3876C167.516 35.7963 167.352 35.213 167.162 34.6399C167.159 34.6257 167.154 34.6118 167.149 34.5983C166.485 32.5793 165.525 30.6953 164.307 29.0219C163.601 28.0512 162.686 27.093 161.561 27.0555C161.245 27.043 160.91 27.1034 160.62 26.943C160.407 26.7905 160.227 26.5869 160.095 26.3473C159.537 25.5678 158.798 24.9716 157.957 24.6232C157.116 24.2748 156.204 24.1874 155.321 24.3705L155.205 24.3975C155.139 24.4121 155.073 24.4288 155.016 24.4475C154.96 24.4663 154.858 24.4975 154.779 24.5246C154.866 24.6829 154.951 24.8433 155.033 25.0058C155.257 25.446 155.464 25.8959 155.655 26.3556C155.813 26.7389 155.959 27.1284 156.093 27.5242C154.166 27.7679 152.596 29.2823 151.162 30.7238L147.785 34.115C147.779 34.1207 147.773 34.127 147.768 34.1337L147.67 34.2379C147.646 34.265 147.621 34.292 147.599 34.3212C147.59 34.3299 147.581 34.3397 147.574 34.3504C147.546 34.3837 147.52 34.4191 147.493 34.4545C147.446 34.5201 147.404 34.5898 147.367 34.6628C147.349 34.6941 147.332 34.7268 147.318 34.7607C147.313 34.7707 147.309 34.7812 147.305 34.792C147.293 34.8204 147.282 34.8496 147.273 34.8795C147.272 34.8836 147.272 34.8878 147.273 34.892C147.268 34.909 147.263 34.9264 147.26 34.944C147.222 35.0906 147.233 35.2477 147.292 35.3857L149.519 35.4127H149.78C149.791 35.7419 149.801 36.0731 149.812 36.4022C149.459 36.6949 149.12 37.0077 148.796 37.3396C148.443 37.7013 148.111 38.0882 147.804 38.4977C145.796 41.1828 144.747 44.6511 144.642 48.1423C144.642 48.2506 144.642 48.3506 144.642 48.4631C144.642 48.7818 144.642 49.1005 144.642 49.4171C144.642 49.6254 144.659 49.8337 144.674 50.042C144.675 50.3134 144.74 50.5797 144.862 50.8148C144.878 50.8411 144.896 50.8662 144.915 50.8898C145.028 51.0255 145.163 51.1358 145.314 51.2148L145.476 51.3023C145.557 51.346 145.634 51.3877 145.709 51.4356C146.419 51.8793 146.838 52.7354 147.484 53.2853C147.522 53.3166 147.559 53.3478 147.597 53.3749L147.682 53.4374L147.734 53.4749L147.806 53.5207C147.853 53.552 147.901 53.5806 147.951 53.6061L148.041 53.6561H148.056C148.131 53.6936 148.207 53.729 148.284 53.7603L148.391 53.8019L148.423 53.8144C148.453 53.8249 148.485 53.8374 148.517 53.8457C148.581 53.8665 148.644 53.8853 148.705 53.9019L148.894 53.9478C148.967 53.9623 149.042 53.9769 149.118 53.9873L149.229 54.004L149.342 54.0165C149.521 54.0345 149.702 54.045 149.884 54.0477C150.455 54.0438 151.025 54 151.591 53.9165L156.394 53.2916C157.484 53.152 158.596 53.0125 159.671 53.2583C160.582 53.4666 161.422 53.9457 162.306 54.2852C162.506 54.3623 162.705 54.4331 162.907 54.4935C162.98 54.5164 163.055 54.5414 163.131 54.5623L163.234 54.5914L163.475 54.656C163.562 54.6789 163.648 54.7018 163.735 54.7206C163.857 54.7497 163.978 54.7747 164.1 54.7997C164.183 54.8185 164.268 54.8331 164.352 54.8497H164.369L164.61 54.8914H164.668L164.847 54.9185C164.934 54.933 165.02 54.9455 165.109 54.956C165.301 54.9823 165.493 55.0053 165.685 55.0247C165.995 55.058 166.308 55.083 166.626 55.1039L166.938 55.1247L167.251 55.1414L168.192 55.1872H168.233H168.365C168.756 55.2174 169.149 55.195 169.536 55.1205C169.604 55.1059 169.669 55.0893 169.735 55.0684C169.801 55.0476 169.856 55.0268 169.924 55.0018C170.629 54.7018 171.145 54.0123 171.503 53.2749C171.578 53.1187 171.648 52.9625 171.712 52.8021C171.776 52.6417 171.834 52.4792 171.887 52.3167C171.953 52.1084 172.009 51.9105 172.058 51.7022C172.073 51.646 172.086 51.5897 172.098 51.5314C172.109 51.4731 172.135 51.3585 172.15 51.271C172.197 51.0315 172.233 50.7898 172.259 50.5461C172.259 50.4691 172.276 50.3899 172.284 50.3128C172.301 50.1045 172.314 49.9108 172.321 49.7067C172.321 49.5525 172.321 49.3963 172.321 49.2401C172.32 49.0713 172.306 48.8484 172.306 48.6339ZM167.48 36.198C167.328 36.0397 167.172 35.8877 167.014 35.7439C167.19 35.8668 167.347 36.0201 167.479 36.198H167.48Z" fill="#1E1A1A"/>
<path d="M133.288 56.1537C131.871 55.96 130.465 55.2726 129.067 55.61C128.191 55.8183 127.438 56.4203 126.738 57.039C124.133 59.3503 121.917 62.1536 120.194 65.3192C119.902 65.7925 119.696 66.3247 119.59 66.8856C119.499 67.5355 119.659 68.1959 119.849 68.8187C121.137 73.0285 123.89 76.5447 125.144 80.7671C126.462 85.2082 126.004 90.0617 125.033 94.6111C123.829 100.227 121.872 105.613 119.228 110.588C118.869 111.328 118.42 112.009 117.892 112.613C117.207 113.342 116.286 113.863 115.88 114.817C115.692 115.233 115.637 115.708 115.503 116.154C115.127 117.404 114.216 118.475 114.127 119.793C114.062 120.799 114.493 121.751 114.754 122.709C115.195 124.356 115.149 126.115 114.621 127.73C113.666 130.625 111.171 133.258 111.895 136.235C113.512 135.72 115.304 135.051 116.066 133.391C116.335 132.804 116.469 132.104 116.923 131.675C117.828 130.823 119.369 131.594 120.331 130.81C121.058 130.215 121.084 128.994 120.76 128.057C120.437 127.119 119.879 126.294 119.631 125.33C119.198 123.591 119.891 121.751 119.763 119.954C119.703 119.12 119.471 118.322 119.454 117.493C119.422 115.883 120.228 114.369 121.299 113.275C122.37 112.182 123.693 111.457 124.995 110.742L129.919 108.034C131.705 107.055 133.663 105.862 134.248 103.754C134.47 102.964 134.472 102.123 134.483 101.298C134.651 88.6931 137.504 76.3427 140.341 64.1339C140.781 62.2425 141.229 60.3427 141.884 58.5263C142.539 56.7099 143.821 55.2518 144.474 53.5645C140.685 53.0729 137.224 56.6995 133.288 56.1537Z" fill="#1E1A1A"/>
<path d="M160.432 135.229C160.866 138.145 161.132 141.124 161.339 144.088C157.951 147.196 154.303 149.9 150.597 152.408C150.386 152.551 150.174 152.693 149.961 152.824L149.944 152.924C149.935 152.9 149.925 152.877 149.914 152.855C149.626 152.168 149.124 151.619 148.498 151.31C147.109 148.081 145.722 144.852 144.335 141.624C143.582 139.88 142.829 138.12 142.453 136.239C142.453 136.199 142.436 136.158 142.43 136.118C142.144 134.66 142.078 133.146 141.888 131.669C141.792 130.823 141.62 129.99 141.374 129.181C141.148 128.463 140.838 127.765 140.563 127.063C140.224 126.196 139.94 125.319 139.927 124.384C139.927 124.086 139.944 123.759 139.812 123.509C139.671 123.294 139.497 123.108 139.298 122.959C139.05 122.716 138.861 122.406 138.751 122.059C138.64 121.713 138.611 121.341 138.666 120.978C137.536 121.043 136.9 122.387 136.447 123.526C136.034 124.64 135.493 125.691 134.836 126.651C134.356 127.336 133.747 127.897 133.051 128.294C132.989 128.327 132.927 128.361 132.863 128.39C131.291 129.156 129.456 128.886 127.753 128.54C126.264 128.238 124.724 127.863 123.527 126.838L123.399 126.726C123.045 126.4 122.729 126.026 122.458 125.613C121.455 124.097 121.011 122.099 120.764 120.197C120.742 120.018 120.719 119.839 120.698 119.66C120.527 118.316 120.48 116.956 120.557 115.602C120.58 115.269 120.612 114.935 120.651 114.604C120.678 114.396 120.706 114.171 120.738 113.954C120.737 113.948 120.737 113.942 120.738 113.936C120.787 113.592 120.839 113.246 120.892 112.894C121.08 111.713 121.269 110.501 121.833 109.484C122.205 108.852 122.674 108.296 123.219 107.843C123.422 107.666 123.631 107.497 123.842 107.334C124.184 107.072 124.536 106.822 124.894 106.587C125.793 105.991 126.738 105.482 127.717 105.066C127.95 104.966 128.188 104.872 128.425 104.783C129.347 104.42 130.339 104.333 131.301 104.531C132.153 104.667 133.015 104.723 133.876 104.697C136.083 104.649 138.301 104.183 140.505 103.881C143.565 103.464 146.853 103.414 149.522 105.131C149.65 105.212 149.775 105.297 149.899 105.387C151.216 106.341 152.278 107.678 153.134 109.172C153.323 109.486 153.486 109.809 153.648 110.136C154.021 110.887 154.359 111.659 154.659 112.448C154.837 112.836 154.932 113.263 154.939 113.698C154.935 113.781 154.925 113.863 154.909 113.944C154.858 114.24 154.757 114.527 154.721 114.827C154.602 115.962 155.474 116.91 155.8 117.991C156.01 118.695 155.988 119.449 156.106 120.191C156.278 121.233 156.739 122.17 157.153 123.107C157.807 124.616 158.367 126.173 158.828 127.767C159.156 128.877 159.436 130.004 159.683 131.142C159.763 131.507 159.839 131.873 159.91 132.239C160.115 133.248 160.283 134.235 160.432 135.229Z" fill="#0677F9"/>
<path d="M180.5 104.381V105.839L180.257 105.835L179.986 105.83L176.959 105.789L169.502 105.681L167.409 105.651L166.867 105.643L163.725 105.599L159.299 105.535L149.906 105.399L133.608 105.166L127.726 105.083L125.366 105.049L123.194 105.018L121.841 104.997L120.559 104.979L111.056 104.843L108.421 104.806L107.847 104.797L107.474 103.733L104.765 96.0026L104.27 94.5903L104.647 92.9239L106.341 94.1737L107.384 94.3174L124.551 96.6796L127.773 97.1233L134.606 98.0648L141.299 98.9856L143.923 99.3459L159.449 101.483L163.788 102.081L167.379 102.575L180.148 104.333L180.5 104.381Z" fill="#3F3D56"/>
<path d="M104.647 92.9239L108.035 102.714L180.5 104.381V93.7571L104.647 92.9239Z" fill="#504F60"/>
<path d="M108.411 103.756L108.976 163.539L111.611 163.123L111.046 103.756H108.411Z" fill="#3F3D56"/>
<path d="M180.257 105.833H179.986C179.547 109.56 178.821 113.239 177.816 116.829L176.959 105.789L176.923 105.318L180.089 104.914L180.195 104.901L180.257 105.833Z" fill="#3F3D56"/>
<path d="M169.959 98.7564L142.385 99.3813L133.821 96.2567L156.784 94.7986L169.959 98.7564Z" fill="white"/>
<path d="M135.37 86.608C135.078 86.7321 134.819 86.9364 134.617 87.2016C134.46 87.489 134.364 87.8125 134.337 88.1474L133.874 91.2032C133.803 91.4827 133.816 91.78 133.909 92.051C134.03 92.3072 134.38 92.4405 134.555 92.2281C134.532 92.8259 134.579 93.4633 134.894 93.9507C135.208 94.4382 135.867 94.6944 136.311 94.3549C136.381 94.4805 136.474 94.5878 136.585 94.6695C136.696 94.7511 136.822 94.8051 136.953 94.8277C137.085 94.8503 137.219 94.8409 137.347 94.8003C137.475 94.7596 137.594 94.6887 137.695 94.5923C137.427 94.6923 137.408 95.1443 137.599 95.3735C137.811 95.5814 138.083 95.7014 138.366 95.713C141.674 96.229 145.046 95.7594 148.135 94.3528C148.427 94.2195 147.659 90.2387 147.582 89.8305C147.394 88.8702 147.299 87.6974 146.567 87.0517C144.817 85.506 141.707 85.2019 139.575 85.3852C138.118 85.5072 136.693 85.9215 135.37 86.608Z" fill="#FBBEBE"/>
<path opacity="0.1" d="M163.426 87.0704C156.618 87.2141 149.669 87.337 143.172 85.0811C143.792 87.7428 143.749 90.541 143.048 93.1779L174.879 96.0942C176.229 96.2171 181.825 96.917 183.14 96.565C184.456 96.2129 172.101 91.7094 172.6 90.3158C173.972 86.4767 178.569 84.227 175.258 84.0833C171.079 83.9 167.637 86.9829 163.426 87.0704Z" fill="black"/>
<path d="M163.614 87.4871C156.806 87.6308 149.857 87.7537 143.36 85.4977C143.981 88.1595 143.938 90.9577 143.236 93.5946L175.068 96.5109C176.417 96.6338 182.013 97.3441 183.329 96.9817C184.644 96.6192 184.336 94.834 184.834 93.4405C186.207 89.6014 178.757 84.6437 175.446 84.5C171.267 84.3166 167.825 87.3996 163.614 87.4871Z" fill="#1E1A1A"/>
<path d="M152.79 88.0661C153.082 88.19 153.341 88.3943 153.543 88.6598C153.7 88.9475 153.796 89.2707 153.825 89.6055L154.288 92.6613C154.358 92.941 154.345 93.2379 154.252 93.5091C154.132 93.7654 153.78 93.8987 153.607 93.6862C153.627 94.284 153.582 94.9215 153.268 95.4089C152.954 95.8963 152.295 96.1525 151.849 95.813C151.779 95.9386 151.686 96.046 151.575 96.1276C151.464 96.2093 151.338 96.2633 151.207 96.2858C151.075 96.3084 150.941 96.2991 150.813 96.2584C150.685 96.2178 150.566 96.1468 150.465 96.0505C150.733 96.1505 150.753 96.6025 150.563 96.8316C150.35 97.0396 150.078 97.1595 149.793 97.1712C146.486 97.6872 143.115 97.2176 140.027 95.8109C139.735 95.6776 140.501 91.6969 140.58 91.2886C140.768 90.3283 140.862 89.1556 141.594 88.5098C143.343 86.9642 146.454 86.6601 148.587 86.8434C150.043 86.9656 151.467 87.3799 152.79 88.0661Z" fill="#FBBEBE"/>
<path d="M107.805 81.4316C107.18 82.3232 106.553 83.2335 106.151 84.2729C105.381 86.256 105.494 88.5015 105.622 90.6554C105.658 91.2803 105.703 91.9177 105.998 92.4364C106.254 92.8282 106.591 93.1462 106.981 93.3634C108.611 94.3882 110.519 94.6944 112.383 94.9236C115.236 95.2735 118.1 95.4867 120.973 95.5631C128.092 95.7547 135.319 95.111 142.253 96.8962C141.395 95.4527 141.397 93.5425 141.877 91.8969C142.357 90.2513 143.281 88.8181 144.186 87.4079C141.013 86.2956 137.61 88.0328 134.286 87.8599C130.873 87.6829 127.715 85.4998 124.299 85.5019C123.565 85.5019 122.818 85.604 122.104 85.4082C121.391 85.2124 120.7 84.6166 120.634 83.8063C121.545 84.0334 122.409 83.171 122.786 82.2253C123.162 81.2796 123.23 80.211 123.595 79.259C124.504 76.8906 126.96 75.7928 128.489 73.8431C128.73 73.5348 128.957 73.1703 128.95 72.762C128.914 72.4161 128.782 72.091 128.573 71.8308C127.303 69.9561 125.389 68.9146 123.798 67.4564C123.245 66.9482 122.129 65.0318 121.508 64.8547C120.356 64.5277 119.379 66.3691 118.63 67.2669C114.848 71.8149 111.24 76.5365 107.805 81.4316Z" fill="#1E1A1A"/>
<path opacity="0.07" d="M145.653 80.9025C146.13 81.294 146.554 81.7591 146.912 82.2835C147.09 82.5469 147.217 82.8484 147.285 83.169C147.353 83.4895 147.36 83.8221 147.305 84.1458C147.247 83.542 147.368 82.9337 147.651 82.4136C147.934 81.8935 148.363 81.4901 148.873 81.2649L145.653 80.9025Z" fill="black"/>
<g opacity="0.1">
<path opacity="0.1" d="M156.091 26.2764C155.87 25.6254 155.615 24.989 155.327 24.3704C155.141 24.41 154.958 24.4622 154.777 24.5267C155.1 25.1203 155.391 25.7345 155.649 26.366C155.794 26.3243 155.941 26.2952 156.091 26.2764Z" fill="black"/>
<path opacity="0.1" d="M167.012 34.4899C167.063 34.5356 167.112 34.5876 167.16 34.6353C167.157 34.6218 167.153 34.6087 167.147 34.5959C167.105 34.5612 167.059 34.5259 167.012 34.4899Z" fill="black"/>
<path opacity="0.1" d="M149.515 35.4064C149.613 35.321 149.703 35.2315 149.808 35.1482L149.778 34.1587L147.768 34.1358C147.443 34.467 147.096 34.9419 147.288 35.3856L149.515 35.4064Z" fill="black"/>
<path opacity="0.1" d="M171.491 52.0626C171.134 52.8 170.618 53.4916 169.912 53.7894C169.368 54.0186 168.77 53.9977 168.188 53.9686C166.204 53.879 164.187 53.7811 162.312 53.0541C161.435 52.7125 160.595 52.2355 159.677 52.0251C158.602 51.7793 157.49 51.9189 156.4 52.0605L151.597 52.6854C150.179 52.8687 148.6 53.0062 147.469 52.0438C146.821 51.4939 146.404 50.6378 145.694 50.1962C145.395 50.0087 145.039 49.8879 144.845 49.5712C144.723 49.3361 144.658 49.0698 144.657 48.7984C144.642 48.5797 144.632 48.361 144.625 48.1423C144.604 48.7778 144.615 49.414 144.657 50.0483C144.658 50.3196 144.723 50.586 144.845 50.8211C145.033 51.1356 145.395 51.2564 145.694 51.446C146.404 51.8876 146.823 52.7437 147.469 53.2937C148.598 54.256 150.179 54.1269 151.597 53.9353L156.4 53.3103C157.49 53.1687 158.602 53.0291 159.677 53.2749C160.588 53.4832 161.427 53.9623 162.312 54.3039C164.194 55.0309 166.204 55.1372 168.188 55.2184C168.77 55.2455 169.368 55.2684 169.912 55.0393C170.618 54.7414 171.134 54.0498 171.491 53.3124C172.184 51.8855 172.378 50.267 172.305 48.636C172.264 49.8304 171.987 51.0003 171.491 52.0626Z" fill="black"/>
</g>
<path opacity="0.1" d="M156.037 27.6158L158.672 30.3238C158.672 30.3238 156.413 29.2823 156.037 27.6158Z" fill="black"/>
</g>
<defs>
<clipPath id="clip0_206_343">
<rect width="185" height="167.276" fill="white" transform="translate(0 0.429932)"/>
</clipPath>
</defs>
</svg>
