<svg width="20" height="20" viewBox="0 0 20 20" fill="none" xmlns="http://www.w3.org/2000/svg">
<path d="M8.68689 10.3536L9.04044 10.0001L8.68689 9.64653L5.84522 6.80486C5.62219 6.58183 5.5 6.28396 5.5 5.97508V3.33341C5.5 2.69289 6.02614 2.16675 6.66667 2.16675H13.3333C13.9739 2.16675 14.5 2.69289 14.5 3.33341V5.98341C14.5 6.29221 14.3779 6.59001 14.155 6.81301C14.1549 6.81307 14.1548 6.81313 14.1548 6.8132L11.3136 9.64601L10.9596 9.99905L11.3126 10.3531L14.1626 13.2115L14.1631 13.212C14.3765 13.4253 14.5 13.7227 14.5 14.0334V16.6667C14.5 17.3073 13.9739 17.8334 13.3333 17.8334H6.66667C6.02614 17.8334 5.5 17.3073 5.5 16.6667V14.0334C5.5 13.7248 5.62208 13.4254 5.83943 13.2011L8.68689 10.3536Z" stroke="#1B1B1B"/>
</svg>
