<svg width="20" height="20" viewBox="0 0 20 20" fill="none" xmlns="http://www.w3.org/2000/svg">
<path d="M5 3.33341V5.97508C5 6.41675 5.175 6.84175 5.49167 7.15842L8.33333 10.0001L5.48333 12.8501C5.175 13.1667 5 13.5917 5 14.0334V16.6667C5 17.5834 5.75 18.3334 6.66667 18.3334H13.3333C14.25 18.3334 15 17.5834 15 16.6667V14.0334C15 13.5917 14.825 13.1667 14.5167 12.8584L11.6667 10.0001L14.5083 7.16675C14.825 6.85008 15 6.42508 15 5.98341V3.33341C15 2.41675 14.25 1.66675 13.3333 1.66675H6.66667C5.75 1.66675 5 2.41675 5 3.33341Z" fill="#FF304F"/>
</svg>
