<svg width="35" height="35" viewBox="0 0 35 35" fill="none" xmlns="http://www.w3.org/2000/svg">
<path d="M32.0833 7.29175V10.2084H27.7083V14.5834H24.7917V10.2084H20.4167V7.29175H24.7917V2.91675H27.7083V7.29175H32.0833ZM27.7083 27.7084H7.29167V7.29175H16.0417V4.37508H7.29167C5.6875 4.37508 4.375 5.68758 4.375 7.29175V27.7084C4.375 29.3126 5.6875 30.6251 7.29167 30.6251H27.7083C29.3125 30.6251 30.625 29.3126 30.625 27.7084V18.9584H27.7083V27.7084ZM21.875 18.9584V24.7917H24.7917V18.9584H21.875ZM16.0417 24.7917H18.9583V13.1251H16.0417V24.7917ZM13.125 24.7917V16.0417H10.2083V24.7917H13.125Z" fill="#4F4F4F"/>
</svg>
