<svg width="197" height="184" viewBox="0 0 197 184" fill="none" xmlns="http://www.w3.org/2000/svg">
<g clip-path="url(#clip0_206_304)">
<path d="M15.6354 179.681L18.5766 179.68L19.9757 167.114H15.6349L15.6354 179.681Z" fill="#9E616A"/>
<path d="M14.8853 182.839L24.3688 182.839V182.706C24.3687 181.621 23.9798 180.581 23.2876 179.814C22.5953 179.048 21.6565 178.617 20.6775 178.617H20.6773L14.8851 178.617L14.8853 182.839Z" fill="#2F2E41"/>
<path d="M26.9108 179.681L29.852 179.68L31.2511 167.114H26.9103L26.9108 179.681Z" fill="#9E616A"/>
<path d="M26.1607 182.839L35.6442 182.839V182.706C35.6442 181.621 35.2552 180.581 34.563 179.814C33.8708 179.048 32.9319 178.617 31.953 178.617H31.9527L26.1606 178.617L26.1607 182.839Z" fill="#2F2E41"/>
<path d="M153.978 182.353V81.4177C153.978 80.796 153.755 80.1998 153.358 79.7603C152.961 79.3207 152.423 79.0737 151.862 79.0737H142.419C141.858 79.0737 141.32 79.3207 140.923 79.7603C140.526 80.1998 140.303 80.796 140.303 81.4177V182.616L153.978 182.353Z" fill="#FDA402"/>
<path d="M122.791 182.669V102.412C122.791 101.79 122.568 101.194 122.171 100.755C121.774 100.315 121.236 100.068 120.675 100.068H111.232C110.671 100.068 110.133 100.315 109.736 100.755C109.339 101.194 109.116 101.79 109.116 102.412V182.496L122.791 182.669Z" fill="#FDA402"/>
<path d="M178.208 87.317C178.347 87.317 178.483 87.2724 178.6 87.1885C178.716 87.1047 178.809 86.9853 178.865 86.8447C178.922 86.7041 178.941 86.5484 178.919 86.3963C178.898 86.2442 178.837 86.1022 178.744 85.9876L147.171 46.9776L116.1 66.3056L84.8431 6.64502L53.0015 35.6771C52.9284 35.7436 52.8679 35.8254 52.8234 35.9178C52.7789 36.0103 52.7512 36.1115 52.7421 36.2157C52.7329 36.32 52.7424 36.4252 52.7699 36.5254C52.7975 36.6257 52.8426 36.7189 52.9027 36.7997C52.9628 36.8806 53.0367 36.9476 53.1201 36.9968C53.2036 37.0461 53.295 37.0766 53.3891 37.0867C53.4833 37.0967 53.5783 37.0862 53.6687 37.0556C53.7591 37.025 53.8432 36.9749 53.9162 36.9083L84.4491 9.06948L115.567 68.4656L146.87 48.9939L177.672 87.0519C177.74 87.1355 177.822 87.2023 177.915 87.248C178.007 87.2936 178.107 87.3172 178.208 87.317Z" fill="#FDA402"/>
<path d="M178.328 93.9609C174.618 93.9609 171.611 90.6294 171.611 86.5198C171.611 82.4103 174.618 79.0788 178.328 79.0788C182.038 79.0788 185.045 82.4103 185.045 86.5198C185.045 90.6294 182.038 93.9609 178.328 93.9609Z" fill="#0677F9"/>
<path d="M147.141 55.4269C143.431 55.4269 140.423 52.0954 140.423 47.9858C140.423 43.8762 143.431 40.5447 147.141 40.5447C150.85 40.5447 153.858 43.8762 153.858 47.9858C153.858 52.0954 150.85 55.4269 147.141 55.4269Z" fill="#CCCCCC"/>
<path d="M115.953 74.8267C112.244 74.8267 109.236 71.4953 109.236 67.3857C109.236 63.2761 112.244 59.9446 115.953 59.9446C119.663 59.9446 122.671 63.2761 122.671 67.3857C122.671 71.4953 119.663 74.8267 115.953 74.8267Z" fill="#E6E6E6"/>
<path d="M84.7661 15.2984C81.0563 15.2984 78.0488 11.9669 78.0488 7.85731C78.0488 3.74773 81.0563 0.41626 84.7661 0.41626C88.4759 0.41626 91.4833 3.74773 91.4833 7.85731C91.4833 11.9669 88.4759 15.2984 84.7661 15.2984Z" fill="#0677F9"/>
<path d="M24.7906 70.7169C21.0807 70.7169 18.0733 67.3855 18.0733 63.2759C18.0733 59.1663 21.0807 55.8348 24.7906 55.8348C28.5004 55.8348 31.5078 59.1663 31.5078 63.2759C31.5078 67.3855 28.5004 70.7169 24.7906 70.7169Z" fill="#0677F9"/>
<path d="M27.1656 121.242C24.6515 121.577 18.2223 119.037 17.8738 122.902C14.5647 133.693 14.6629 175.057 14.6629 175.057L19.7008 175.323C19.7008 175.323 23.7266 142.456 25.6302 135.425C26.5855 143.971 26.4181 176.652 26.4181 176.652L30.9762 176.918C30.9762 176.918 35.0649 149.089 35.0882 140.921C35.5851 134.938 34.3664 126.072 34.888 120.288C32.3951 121.163 29.7713 121.487 27.1656 121.242L27.1656 121.242Z" fill="#FDA402"/>
<path d="M60.416 182.311V65.9775C60.416 64.4856 59.4686 63.2759 58.3001 63.2759H48.8575C47.689 63.2759 46.7416 64.4853 46.7416 65.9775V182.616L60.416 182.311Z" fill="#FDA402"/>
<path d="M35.7181 89.9363C36.7265 87.6528 37.9581 85.4988 39.391 83.5131C39.6904 83.1253 39.9631 82.7131 40.2067 82.28C40.7225 81.2888 40.876 80.1248 41.2023 79.0405C42.1139 76.0003 44.3882 73.558 44.9423 70.4142C45.1438 69.2715 46.8461 72.5928 46.3985 74.0098C45.5997 76.5743 45.4965 79.2903 44.4793 81.7671C43.4621 84.2439 42.2674 86.6197 41.3894 89.1524C40.8904 90.5901 40.4922 92.0756 39.7605 93.4044C39.0288 94.7332 37.8868 95.8467 36.5074 96.046C36.5167 95.0827 36.3846 94.1241 36.1163 93.2077C35.8165 92.1607 35.2839 90.9276 35.7181 89.9363Z" fill="#9E616A"/>
<path d="M20.6258 91.6583C20.6875 89.7792 20.4228 87.9045 19.8462 86.136C19.6255 85.4583 19.3664 84.77 19.3879 84.0498C19.4191 83.3801 19.707 82.7663 19.9685 82.1603C20.8705 80.0742 21.5039 77.8631 22.1276 75.6574L23.3271 71.4984C23.7182 71.1807 21.4343 71.0705 20.9473 71.8173C19.3544 74.2675 18.1476 77.0818 16.8857 79.758C16.5639 80.3956 16.2895 81.0613 16.0653 81.7484C15.7571 82.862 15.6113 84.0228 15.6335 85.1873C15.6335 87.3638 15.8925 89.5323 16.1612 91.6902C16.3316 93.0429 16.5547 94.5151 17.4783 95.4107C18.4379 94.0501 19.4023 92.7213 20.6258 91.6583Z" fill="#9E616A"/>
<path d="M26.9689 89.5054C24.2196 89.5054 21.9909 87.0365 21.9909 83.991C21.9909 80.9455 24.2196 78.4767 26.9689 78.4767C29.7181 78.4767 31.9468 80.9455 31.9468 83.991C31.9468 87.0365 29.7181 89.5054 26.9689 89.5054Z" fill="#9E616A"/>
<path d="M31.0156 78.4894C31.0715 78.322 31.084 78.1407 31.0518 77.9658C31.0196 77.791 30.944 77.6296 30.8333 77.4999C30.709 77.3914 30.544 77.3509 30.4107 77.2473C30.2213 77.0709 30.0662 76.8536 29.955 76.6087C29.615 76.0815 29.1174 75.7049 28.5504 75.5454C27.9835 75.386 27.384 75.4542 26.8581 75.7379C26.0355 76.2149 25.5388 77.17 24.8071 77.813C24.4357 78.1462 24.0049 78.3935 23.6312 78.7268C22.8827 79.443 22.3506 80.3963 22.1068 81.4581C21.8641 82.5127 21.7225 83.5927 21.6841 84.6802C21.6452 85.0065 21.6567 85.3378 21.7182 85.6598C21.7939 85.9299 21.9068 86.1854 22.0531 86.4172C22.8051 87.6793 23.7963 88.8255 25.0383 89.4768C26.2803 90.1281 27.7911 90.2341 29.016 89.5525C29.1393 89.4973 29.2454 89.4034 29.3213 89.2824C29.3909 89.0981 29.4076 88.8945 29.3691 88.6994C29.3026 87.9278 29.4404 87.1516 29.7656 86.4654C29.9936 85.9606 30.3354 85.5263 30.5176 85.0038C30.6872 84.419 30.7598 83.805 30.7319 83.1915C30.7536 81.6019 30.6561 80.0192 31.0156 78.4894Z" fill="#2D293D"/>
<path d="M185.165 182.469V126.305C185.165 125.585 184.218 125.001 183.049 125.001H173.607C172.438 125.001 171.491 125.586 171.491 126.305V182.616L185.165 182.469Z" fill="#FDA402"/>
<path d="M0.239655 183.201H196.76C196.824 183.201 196.885 183.173 196.93 183.123C196.975 183.073 197 183.006 197 182.935C197 182.865 196.975 182.797 196.93 182.747C196.885 182.697 196.824 182.669 196.76 182.669H0.239899C0.17627 182.669 0.115265 182.697 0.0702667 182.747C0.0252838 182.797 0 182.865 0 182.935C0 183.006 0.0252838 183.073 0.0702667 183.123C0.115265 183.173 0.17627 183.201 0.239899 183.201H0.239655Z" fill="#E6E6E6"/>
<path d="M91.6035 182.272V50.2543C91.6035 48.5611 90.6561 47.1885 89.4876 47.1885H80.045C78.8765 47.1885 77.9291 48.5611 77.9291 50.2543V182.616L91.6035 182.272Z" fill="#0677F9"/>
<path d="M46.5375 73.3294C45.3451 73.3294 44.3784 72.2586 44.3784 70.9377C44.3784 69.6167 45.3451 68.5459 46.5375 68.5459C47.73 68.5459 48.6967 69.6167 48.6967 70.9377C48.6967 72.2586 47.73 73.3294 46.5375 73.3294Z" fill="#A0616A"/>
<path d="M22.5474 72.2664C21.3549 72.2664 20.3882 71.1956 20.3882 69.8747C20.3882 68.5537 21.3549 67.4829 22.5474 67.4829C23.7398 67.4829 24.7065 68.5537 24.7065 69.8747C24.7065 71.1956 23.7398 72.2664 22.5474 72.2664Z" fill="#A0616A"/>
<path d="M17.3008 99.482C17.0901 99.2685 15.3725 88.1414 15.3825 87.8907C15.4091 86.5198 19.185 84.9541 19.9407 85.4989C20.6536 86.0129 21.8951 91.9099 22.694 92.9839L23.5392 91.3454H30.2565L30.6636 92.183C31.545 91.5948 32.3379 91.0525 32.6207 90.873C32.7179 90.8001 32.8238 90.7424 32.9352 90.7016C33.6334 90.5287 34.2887 90.1875 34.8544 89.7024C35.4062 89.232 37.967 84.3057 38.6531 84.4359C39.428 84.5794 42.0416 87.0828 42.0117 89.4852C41.6827 89.4774 37.4023 98.9586 37.3422 99.312C37.0136 100.805 35.9283 122.587 35.578 123.602C33.9644 123.429 35.2383 123.121 33.6765 123.602C31.9948 124.12 30.2195 123.559 28.485 123.352C27.7628 123.273 27.0372 123.237 26.3115 123.246C23.6726 123.259 19.9061 123.421 17.3512 124.146C17.3368 122.292 18.8074 118.279 19.352 116.527C19.4233 116.004 19.4209 115.471 19.3448 114.949C19.2752 114.308 17.8704 100.19 17.3008 99.482Z" fill="#E6E6E6"/>
</g>
<defs>
<clipPath id="clip0_206_304">
<rect width="197" height="182.785" fill="white" transform="matrix(-1 0 0 1 197 0.41626)"/>
</clipPath>
</defs>
</svg>
