<svg width="50" height="50" viewBox="0 0 50 50" fill="none" xmlns="http://www.w3.org/2000/svg">
<path d="M6.25 20.8334V29.1667C6.25 30.3126 7.1875 31.2501 8.33333 31.2501H14.5833L21.4375 38.1042C22.75 39.4167 25 38.4792 25 36.6251V13.3542C25 11.5001 22.75 10.5626 21.4375 11.8751L14.5833 18.7501H8.33333C7.1875 18.7501 6.25 19.6876 6.25 20.8334ZM34.375 25.0001C34.375 21.3126 32.25 18.1459 29.1667 16.6042V33.3751C32.25 31.8542 34.375 28.6876 34.375 25.0001ZM29.1667 9.27089V9.68756C29.1667 10.4792 29.6875 11.1667 30.4167 11.4584C35.7917 13.6042 39.5833 18.8751 39.5833 25.0001C39.5833 31.1251 35.7917 36.3959 30.4167 38.5417C29.6667 38.8334 29.1667 39.5209 29.1667 40.3126V40.7292C29.1667 42.0417 30.4792 42.9584 31.6875 42.5001C38.75 39.8126 43.75 33.0001 43.75 25.0001C43.75 17.0001 38.75 10.1876 31.6875 7.50006C30.4792 7.02089 29.1667 7.95839 29.1667 9.27089Z" fill="#1B1B1B"/>
</svg>
