<svg width="31" height="38" viewBox="0 0 31 38" fill="none" xmlns="http://www.w3.org/2000/svg">
<path d="M16.1381 1.40175C15.8981 3.25278 15.0308 5.33495 13.6933 7.25195C12.3905 9.12423 11.1838 10.4489 6.46555 15.1545C3.06417 18.5507 1.56963 20.5312 0.799379 22.6855C-0.238929 25.5652 0.73198 29.2248 3.07407 31.2783C4.39515 32.4479 5.95595 33.0748 7.67951 33.1449C8.95037 33.1881 9.8308 33 11.1235 32.4012C12.2477 31.8771 13.606 30.6494 14.2165 29.6143C14.4279 29.2542 14.614 28.9851 14.6354 29.0088C14.6567 29.0325 14.5337 29.3956 14.3749 29.8377C13.3195 32.5677 11.5937 34.5174 9.32319 35.5649C8.3004 36.0351 6.94921 36.4023 6.33036 36.3813C6.10934 36.3738 5.8982 36.401 5.87454 36.4461C5.83944 36.5023 9.98238 36.6776 15.0769 36.8507C20.1714 37.0239 24.3269 37.1537 24.3056 37.13C24.2953 37.1067 23.9547 37.0378 23.5481 36.9551C22.6684 36.7989 21.7072 36.4334 20.6974 35.8712C18.5585 34.6738 17.0212 32.705 16.1399 29.9896C15.789 28.9218 15.8359 28.8431 16.2822 29.7075C17.6545 32.3019 20.6843 33.9772 23.4283 33.6458C25.3057 33.4227 26.7124 32.7246 28.0647 31.3475C29.3941 29.9925 30.1476 28.3311 30.335 26.398C30.6639 22.9088 29.3738 20.5008 23.8129 14.1949C22.2571 12.4435 20.6394 10.5638 20.2149 10.0329C17.7018 6.82587 16.4672 4.08694 16.2959 1.31531L16.2458 0.510257L16.1381 1.40175Z" fill="white"/>
</svg>
